<svg width="47" height="47" viewBox="0 0 47 47" fill="none" xmlns="http://www.w3.org/2000/svg">
<circle cx="23.5" cy="23.5" r="21.5" fill="url(#paint0_linear_659_114)" stroke="url(#paint1_linear_659_114)" stroke-width="4"/>
<path d="M26.5898 22.5571C27.7707 21.6959 28.5396 20.3021 28.5396 18.7319C28.5396 16.1227 26.4169 14 23.8077 14C21.1985 14 19.0758 16.1227 19.0758 18.7319C19.0758 20.3021 19.8447 21.6959 21.0256 22.5571C18.0901 23.6804 16 26.5265 16 29.852C16 31.2871 17.1675 32.4546 18.6026 32.4546H29.0128C30.4479 32.4546 31.6154 31.2871 31.6154 29.852C31.6154 26.5265 29.5253 23.6804 26.5898 22.5571ZM20.4954 18.7319C20.4954 16.9055 21.9813 15.4196 23.8077 15.4196C25.6341 15.4196 27.12 16.9055 27.12 18.7319C27.12 20.5584 25.6341 22.0443 23.8077 22.0443C21.9813 22.0443 20.4954 20.5584 20.4954 18.7319ZM29.0128 31.035H18.6026C17.9503 31.035 17.4196 30.5043 17.4196 29.852C17.4196 26.3295 20.2852 23.4639 23.8077 23.4639C27.3302 23.4639 30.1959 26.3295 30.1959 29.852C30.1958 30.5043 29.6652 31.035 29.0128 31.035Z" fill="black"/>
<defs>
<linearGradient id="paint0_linear_659_114" x1="23.5" y1="0" x2="23.5" y2="47" gradientUnits="userSpaceOnUse">
<stop stop-color="#EDE58F"/>
<stop offset="1" stop-color="white"/>
</linearGradient>
<linearGradient id="paint1_linear_659_114" x1="23.5" y1="0" x2="23.5" y2="47" gradientUnits="userSpaceOnUse">
<stop stop-color="white"/>
<stop offset="1" stop-color="#EDE58F"/>
</linearGradient>
</defs>
</svg>
