<svg width="47" height="47" viewBox="0 0 47 47" fill="none" xmlns="http://www.w3.org/2000/svg">
<circle cx="23.5" cy="23.5" r="21.5" fill="url(#paint0_linear_659_115)" stroke="url(#paint1_linear_659_115)" stroke-width="4"/>
<path d="M23 14C18.0373 14 14 18.0373 14 23C14 27.9627 18.0373 32 23 32C27.9627 32 32 27.9627 32 23C32 18.0373 27.9627 14 23 14ZM20.6036 15.0749C19.8975 15.7612 19.299 16.7464 18.8564 17.943C18.3459 17.6466 17.8663 17.2931 17.422 16.8865C18.3233 16.0635 19.4067 15.4375 20.6036 15.0749ZM16.9057 17.4019C17.433 17.8881 18.009 18.3037 18.622 18.6461C18.2666 19.8319 18.055 21.1868 18.0248 22.64H14.7291C14.8158 20.6248 15.6255 18.7943 16.9057 17.4019ZM14.7291 23.36H18.0248C18.0549 24.805 18.264 26.1532 18.6158 27.3342C18.0006 27.6785 17.4228 28.0967 16.8941 28.5859C15.6205 27.195 14.8156 25.3692 14.7291 23.36ZM17.4096 29.1017C17.8553 28.692 18.337 28.3362 18.8496 28.0378C19.2929 29.243 19.8938 30.2352 20.6036 30.9251C19.4011 30.5608 18.3133 29.9304 17.4096 29.1017ZM22.64 31.2468C21.3634 31.0276 20.2274 29.6589 19.5153 27.6909C20.4875 27.2388 21.5434 26.9804 22.64 26.9336V31.2468ZM22.64 26.2048C21.4661 26.2507 20.333 26.5211 19.2884 26.9944C18.9699 25.9019 18.7752 24.6648 18.7448 23.36H22.64V26.2048ZM22.64 22.64H18.7448C18.7754 21.327 18.9725 20.0827 19.2945 18.9851C20.3374 19.4567 21.4684 19.7262 22.64 19.772V22.64ZM22.64 19.0432C21.5462 18.9964 20.4928 18.7394 19.5227 18.2894C20.2352 16.3321 21.3677 14.9717 22.64 14.7532V19.0432ZM31.2709 22.64H27.9752C27.945 21.1868 27.7334 19.8318 27.378 18.6459C27.991 18.3035 28.5669 17.8879 29.0942 17.4017C30.3744 18.7942 31.1841 20.6247 31.2709 22.64ZM28.5782 16.8866C28.1339 17.2931 27.6541 17.6464 27.1436 17.9429C26.701 16.7462 26.1025 15.7611 25.3964 15.0749C26.5934 15.4375 27.6769 16.0636 28.5782 16.8866ZM23.36 14.7532C24.6323 14.9716 25.7648 16.332 26.4773 18.2893C25.507 18.7393 24.4536 18.9965 23.36 19.0432V14.7532ZM23.36 19.772C24.5313 19.7262 25.6624 19.4567 26.7055 18.9851C27.0275 20.0826 27.2246 21.327 27.2552 22.64H23.36V19.772ZM23.36 23.36H27.2552C27.2248 24.6648 27.0301 25.9019 26.7116 26.9944C25.6669 26.521 24.5336 26.2507 23.36 26.2048V23.36ZM23.36 31.2468V26.9336C24.4563 26.9804 25.5123 27.2388 26.4846 27.691C25.7725 29.6589 24.6366 31.0276 23.36 31.2468ZM25.3964 30.9251C26.1062 30.2352 26.707 29.2431 27.1504 28.0379C27.6631 28.3363 28.1449 28.6919 28.5906 29.1014C27.6868 29.9303 26.599 30.5608 25.3964 30.9251ZM29.1058 28.5861C28.5771 28.0969 27.9993 27.6786 27.3841 27.3344C27.736 26.1533 27.9451 24.8051 27.9752 23.36H31.2709C31.1844 25.3693 30.3794 27.1952 29.1058 28.5861Z" fill="black"/>
<defs>
<linearGradient id="paint0_linear_659_115" x1="23.5" y1="0" x2="23.5" y2="47" gradientUnits="userSpaceOnUse">
<stop stop-color="#C2DCC2"/>
<stop offset="1" stop-color="white"/>
</linearGradient>
<linearGradient id="paint1_linear_659_115" x1="23.5" y1="0" x2="23.5" y2="47" gradientUnits="userSpaceOnUse">
<stop stop-color="white"/>
<stop offset="1" stop-color="#C2DCC2"/>
</linearGradient>
</defs>
</svg>
