<svg width="172" height="157" viewBox="0 0 172 157" fill="none" xmlns="http://www.w3.org/2000/svg">
<g filter="url(#filter0_d_648_21)">
<rect x="4" width="164" height="149" rx="35" fill="url(#paint0_linear_648_21)" fill-opacity="0.5" shape-rendering="crispEdges"/>
</g>
<path d="M78.3715 72.5925L78.3715 89.5L62.8682 112.667L58.4753 109.366L54.0469 105.531L78.3715 72.5925Z" fill="url(#paint1_linear_648_21)"/>
<path d="M92.6285 73L92.6285 90L108.39 113.411L112.784 110.11L117.21 106.272L92.6285 73Z" fill="url(#paint2_linear_648_21)"/>
<path d="M79 31.5L86 31H92.5L93 118.5L85.5 119.5L78 118.5L79 31.5Z" fill="url(#paint3_linear_648_21)"/>
<circle cx="86" cy="75" r="50" stroke="url(#paint4_linear_648_21)" stroke-width="12"/>
<defs>
<filter id="filter0_d_648_21" x="0" y="0" width="172" height="157" filterUnits="userSpaceOnUse" color-interpolation-filters="sRGB">
<feFlood flood-opacity="0" result="BackgroundImageFix"/>
<feColorMatrix in="SourceAlpha" type="matrix" values="0 0 0 0 0 0 0 0 0 0 0 0 0 0 0 0 0 0 127 0" result="hardAlpha"/>
<feOffset dy="4"/>
<feGaussianBlur stdDeviation="2"/>
<feComposite in2="hardAlpha" operator="out"/>
<feColorMatrix type="matrix" values="0 0 0 0 0 0 0 0 0 0 0 0 0 0 0 0 0 0 0.25 0"/>
<feBlend mode="normal" in2="BackgroundImageFix" result="effect1_dropShadow_648_21"/>
<feBlend mode="normal" in="SourceGraphic" in2="effect1_dropShadow_648_21" result="shape"/>
</filter>
<linearGradient id="paint0_linear_648_21" x1="86" y1="0" x2="86" y2="149" gradientUnits="userSpaceOnUse">
<stop stop-color="#4EA5F4"/>
<stop offset="1" stop-color="#FAFF00" stop-opacity="0"/>
</linearGradient>
<linearGradient id="paint1_linear_648_21" x1="84.7596" y1="77.507" x2="54.3225" y2="117.07" gradientUnits="userSpaceOnUse">
<stop stop-color="#FFE600" stop-opacity="0.37"/>
<stop offset="1" stop-color="#51A6F2"/>
</linearGradient>
<linearGradient id="paint2_linear_648_21" x1="86.2404" y1="77.9146" x2="116.991" y2="117.884" gradientUnits="userSpaceOnUse">
<stop stop-color="#FFE600" stop-opacity="0.22"/>
<stop offset="1" stop-color="#51A6F2"/>
</linearGradient>
<linearGradient id="paint3_linear_648_21" x1="85.5" y1="25" x2="85.5" y2="121" gradientUnits="userSpaceOnUse">
<stop offset="0.463542" stop-color="#FFE600" stop-opacity="0.25"/>
<stop offset="1" stop-color="#51A6F2"/>
</linearGradient>
<linearGradient id="paint4_linear_648_21" x1="86" y1="19" x2="86" y2="131" gradientUnits="userSpaceOnUse">
<stop stop-color="#FFE600" stop-opacity="0.25"/>
<stop offset="1" stop-color="#55A7EE"/>
</linearGradient>
</defs>
</svg>
